<?xml version="1.0" standalone="no"?>
<!DOCTYPE svg PUBLIC "-//W3C//DTD SVG 20010904//EN"
 "http://www.w3.org/TR/2001/REC-SVG-20010904/DTD/svg10.dtd">
<svg version="1.0" xmlns="http://www.w3.org/2000/svg"
 width="225.000000pt" height="225.000000pt" viewBox="0 0 225.000000 225.000000"
 preserveAspectRatio="xMidYMid meet">

<g transform="translate(0.000000,225.000000) scale(0.100000,-0.100000)" stroke="none">
<path d="M645 2080 c-155 -32 -272 -120 -312 -233 -41 -118 -12 -304 67 -427
28 -44 158 -176 165 -168 2 2 -4 37 -12 78 -20 104 -13 277 15 348 56 145 215
266 412 313 30 7 59 16 63 19 11 10 -135 57 -214 69 -73 12 -127 12 -184 1z"/>
<path d="M1397 2075 c-71 -18 -157 -54 -157 -66 0 -5 27 -9 60 -9 56 0 61 -2
87 -36 15 -20 45 -56 65 -80 57 -68 106 -178 118 -264 6 -41 17 -84 25 -97 21
-32 73 -67 129 -88 65 -24 90 -75 90 -190 0 -157 -71 -306 -188 -393 -51 -38
-56 -44 -31 -38 46 11 179 70 242 108 93 55 204 171 247 260 53 107 60 185 22
263 -30 60 -77 95 -161 121 -117 35 -143 75 -156 243 -8 100 -13 122 -37 161
-57 93 -216 140 -355 105z"/>
<path d="M995 1836 c-121 -38 -185 -117 -185 -228 0 -44 4 -54 35 -85 54 -54
69 -45 95 65 14 56 58 104 122 133 43 19 71 23 150 24 57 0 97 4 95 9 -6 17
-97 75 -135 86 -49 13 -128 12 -177 -4z"/>
<path d="M1118 1627 c-110 -31 -174 -129 -137 -210 25 -54 118 -70 163 -28 14
13 28 32 31 42 5 15 12 14 65 -14 79 -40 167 -43 205 -7 30 28 31 54 5 98 -62
102 -208 154 -332 119z"/>
<path d="M162 1566 c-48 -70 -56 -179 -21 -274 35 -96 35 -95 -20 -177 -83
-125 -101 -226 -57 -321 30 -64 66 -99 136 -133 48 -23 67 -26 155 -26 138 0
143 3 94 57 -49 53 -95 145 -111 221 -11 52 -10 67 10 145 27 103 26 107 -52
226 -62 94 -83 145 -99 244 l-12 71 -23 -33z"/>
<path d="M709 1433 c-10 -12 -13 -43 -11 -117 4 -140 23 -178 114 -226 91 -48
112 -68 152 -148 84 -168 143 -182 343 -86 102 49 204 138 237 209 42 87 22
209 -37 236 -28 13 -47 5 -163 -71 -48 -31 -91 -51 -120 -56 -145 -21 -328 71
-427 216 -44 65 -63 74 -88 43z"/>
<path d="M526 1048 c-20 -29 -20 -106 -1 -183 55 -211 290 -391 556 -424 177
-23 336 45 400 172 24 45 28 45 -128 11 -143 -31 -303 -31 -363 0 -75 39 -107
82 -140 190 -33 104 -108 184 -223 236 -55 26 -82 25 -101 -2z"/>
<path d="M2160 915 c-28 -46 -75 -77 -246 -163 -149 -76 -250 -145 -305 -210
-35 -41 -165 -290 -156 -298 7 -8 293 121 372 168 39 22 94 55 124 72 30 17
82 57 116 88 68 63 117 152 135 249 11 55 5 129 -10 129 -5 0 -18 -16 -30 -35z"/>
<path d="M305 433 c82 -132 215 -222 390 -264 161 -39 396 -24 560 34 l39 14
-80 6 c-103 8 -186 38 -329 121 -72 42 -144 74 -197 90 -99 29 -274 56 -359
56 l-60 0 36 -57z"/>
</g>
</svg>
