<?xml version="1.0" encoding="UTF-8" standalone="no" ?>
<!DOCTYPE svg PUBLIC "-//W3C//DTD SVG 1.1//EN" "http://www.w3.org/Graphics/SVG/1.1/DTD/svg11.dtd">
<svg xmlns="http://www.w3.org/2000/svg" xmlns:xlink="http://www.w3.org/1999/xlink" version="1.1" width="1080" height="1080" viewBox="0 0 1080 1080" xml:space="preserve">
<desc>Created with Fabric.js 5.2.4</desc>
<defs>
</defs>
<g transform="matrix(1 0 0 1 540 540)" id="77c868a6-1630-474a-8005-5fe790257d2c"  >
<rect style="stroke: none; stroke-width: 1; stroke-dasharray: none; stroke-linecap: butt; stroke-dashoffset: 0; stroke-linejoin: miter; stroke-miterlimit: 4; fill: rgb(255,255,255); fill-rule: nonzero; opacity: 1; visibility: hidden;" vector-effect="non-scaling-stroke"  x="-540" y="-540" rx="0" ry="0" width="1080" height="1080" />
</g>
<g transform="matrix(1 0 0 1 540 540)" id="f4d7c834-9b65-45bb-97b5-1f7fdb23662f"  >
</g>
<g transform="matrix(2.76 0 0 2.76 536.84 543.89)"  >
<g style="" vector-effect="non-scaling-stroke"   >
		<g transform="matrix(0.13 0 0 -0.13 -0.33 -174.6)"  >
<path style="stroke: none; stroke-width: 1; stroke-dasharray: none; stroke-linecap: butt; stroke-dashoffset: 0; stroke-linejoin: miter; stroke-miterlimit: 4; fill: rgb(136,136,136); fill-rule: nonzero; opacity: 1;" vector-effect="non-scaling-stroke"  transform=" translate(-1997.5, -3309.5)" d="M 1625 3421 C 1546 3386 1490 3299 1490 3213 C 1490 3180 1490 3180 1539 3180 L 1587 3180 L 1593 3220 C 1600 3274 1624 3308 1665 3326 C 1717 3347 2288 3346 2334 3325 C 2374 3306 2400 3263 2400 3215 L 2400 3179 L 2453 3182 L 2505 3185 L 2503 3233 C 2498 3321 2431 3408 2350 3430 C 2331 3436 2171 3440 1990 3440 C 1697 3440 1661 3438 1625 3421 z" stroke-linecap="round" />
</g>
		<g transform="matrix(0.13 0 0 -0.13 0 -126.67)"  >
<path style="stroke: none; stroke-width: 1; stroke-dasharray: none; stroke-linecap: butt; stroke-dashoffset: 0; stroke-linejoin: miter; stroke-miterlimit: 4; fill: rgb(136,136,136); fill-rule: nonzero; opacity: 1;" vector-effect="non-scaling-stroke"  transform=" translate(-2000, -2950)" d="M 878 3064 C 837 3042 830 3021 830 2916 L 830 2820 L 2000 2820 L 3170 2820 L 3170 2910 C 3170 2959 3165 3010 3159 3024 C 3132 3082 3182 3080 1993 3080 C 1052 3079 901 3077 878 3064 z" stroke-linecap="round" />
</g>
		<g transform="matrix(0.13 0 0 -0.13 -0.08 48)"  >
<path style="stroke: none; stroke-width: 1; stroke-dasharray: none; stroke-linecap: butt; stroke-dashoffset: 0; stroke-linejoin: miter; stroke-miterlimit: 4; fill: rgb(136,136,136); fill-rule: nonzero; opacity: 1;" vector-effect="non-scaling-stroke"  transform=" translate(-1999.43, -1640)" d="M 1149 2716 C 1147 2714 1166 2251 1192 1688 C 1218 1126 1239 652 1239 637 C 1240 621 1251 598 1265 585 L 1289 560 L 1995 560 L 2702 560 L 2731 589 C 2749 608 2760 629 2760 647 C 2760 662 2780 1116 2805 1655 C 2830 2194 2850 2654 2850 2678 L 2850 2720 L 2002 2720 C 1535 2720 1151 2718 1149 2716 z M 1554 2434 C 1563 2426 1570 2413 1570 2407 C 1570 2379 1630 1075 1636 974 C 1642 878 1640 862 1626 847 C 1605 826 1567 825 1550 845 C 1541 856 1528 1082 1502 1641 C 1468 2400 1467 2423 1485 2436 C 1510 2454 1535 2454 1554 2434 z M 2034 2434 C 2048 2420 2050 2334 2050 1640 C 2050 946 2048 860 2034 846 C 2016 827 1979 825 1962 842 C 1945 859 1945 2421 1962 2438 C 1979 2455 2016 2453 2034 2434 z M 2515 2433 C 2529 2419 2531 2402 2526 2321 C 2522 2268 2506 1919 2489 1546 C 2472 1172 2454 858 2449 848 C 2437 826 2387 824 2370 845 C 2356 862 2354 799 2399 1797 C 2419 2244 2431 2424 2440 2435 C 2457 2455 2494 2454 2515 2433 z" stroke-linecap="round" />
</g>
</g>
</g>
<g transform="matrix(NaN NaN NaN NaN 0 0)"  >
<g style=""   >
</g>
</g>
<g transform="matrix(NaN NaN NaN NaN 0 0)"  >
<g style=""   >
</g>
</g>
<g transform="matrix(NaN NaN NaN NaN 0 0)"  >
<g style=""   >
</g>
</g>
<g transform="matrix(NaN NaN NaN NaN 0 0)"  >
<g style=""   >
</g>
</g>
</svg>